<?xml version="1.0" encoding="UTF-8" standalone="no"?>
<svg width="18px" height="15px" viewBox="0 0 18 15" version="1.1" xmlns="http://www.w3.org/2000/svg" xmlns:xlink="http://www.w3.org/1999/xlink" xmlns:sketch="http://www.bohemiancoding.com/sketch/ns">
    <title>text_input_tick</title>
    <description>Created with Sketch (http://www.bohemiancoding.com/sketch)</description>
    <defs></defs>
    <g id="icons" stroke="none" stroke-width="1" fill="none" fill-rule="evenodd">
        <path d="M17.1428478,2.81218804 C17.2860248,2.95712118 17.2867534,3.19418236 17.1450337,3.34023902 L6.59838659,14.1810132 C6.45666682,14.3266954 6.22496045,14.3266954 6.08324068,14.1810132 L3.71881567,11.7497317 C3.57636726,11.6040496 3.3446609,11.3658649 3.20366976,11.2201827 L0.357616118,8.2938066 C0.215167709,8.14887346 0.215167709,7.91068876 0.357616118,7.7642576 L2.72276976,5.33297608 C2.86448953,5.18729393 3.0961959,5.18729393 3.23791567,5.33297608 L6.08396932,8.2586032 C6.22641773,8.40428535 6.45812409,8.40428535 6.59911523,8.2586032 L14.2446966,0.400006231 C14.3864164,0.254324082 14.6188514,0.253575074 14.7620284,0.398508215 L17.1428478,2.81218804 L17.1428478,2.81218804 Z M17.1428478,2.81218804" id="Shape" fill="#79CF19"></path>
    </g>
</svg>