<?xml version="1.0" encoding="UTF-8" standalone="no"?>
<svg width="14px" height="14px" viewBox="0 0 14 14" version="1.1" xmlns="http://www.w3.org/2000/svg" xmlns:xlink="http://www.w3.org/1999/xlink" xmlns:sketch="http://www.bohemiancoding.com/sketch/ns">
    <title>text_input_error</title>
    <description>Created with Sketch (http://www.bohemiancoding.com/sketch)</description>
    <defs></defs>
    <g id="icons" stroke="none" stroke-width="1" fill="none" fill-rule="evenodd">
        <path d="M9.48048252,7.00068022 L13.8714428,2.60959798 C14.0428524,2.4374063 14.0428524,2.15482537 13.8714428,1.98341107 L12.0189761,0.130892887 C11.8475666,-0.040521406 11.5657708,-0.040521406 11.3935839,0.130892887 L7.00184625,4.52275251 L2.60699908,0.12856072 C2.43481218,-0.0428535732 2.15301646,-0.0428535732 1.98160693,0.12856072 L0.129140176,1.98185629 C-0.0430467253,2.1524932 -0.0430467253,2.43429674 0.129140176,2.6080432 L4.52320997,7.0014576 L0.130694911,11.3940946 C-0.0399372553,11.5647315 -0.0399372553,11.8473125 0.130694911,12.0195041 L1.98316166,13.8720223 C2.15534857,14.0426592 2.43869902,14.0426592 2.60933119,13.8720223 L7.00106888,9.4801627 L11.3904745,13.8696902 C11.561884,14.0411044 11.8452345,14.0411044 12.016644,13.8696902 L13.8698881,12.0163946 C14.0405203,11.8457577 14.0405203,11.5631767 13.8698881,11.3902077 L9.48048252,7.00068022 L9.48048252,7.00068022 Z M9.48048252,7.00068022" id="Shape copy" fill="#FF0017"></path>
    </g>
</svg>